<svg width="48" height="48" viewBox="0 0 48 48" fill="none" xmlns="http://www.w3.org/2000/svg">
<path d="M31.5623 32.2498C31.472 32.2499 31.3825 32.2322 31.2991 32.1976C31.2157 32.163 31.14 32.1122 31.0763 32.0482L15.9513 16.9232C15.8278 16.7933 15.76 16.6202 15.7623 16.4409C15.7646 16.2616 15.8368 16.0903 15.9636 15.9636C16.0903 15.8368 16.2616 15.7646 16.4409 15.7623C16.6202 15.76 16.7933 15.8278 16.9232 15.9513L32.0482 31.0763C32.1443 31.1724 32.2097 31.2949 32.2362 31.4282C32.2628 31.5615 32.2491 31.6997 32.1971 31.8253C32.1451 31.9509 32.057 32.0582 31.944 32.1338C31.831 32.2093 31.6982 32.2497 31.5623 32.2498ZM23.656 26.5714L21.4307 24.3461C21.4179 24.3334 21.4015 24.3251 21.3838 24.3223C21.3661 24.3194 21.3479 24.3222 21.3318 24.3302C21.3157 24.3382 21.3026 24.3511 21.2942 24.3669C21.2858 24.3828 21.2826 24.4009 21.285 24.4187C21.3748 24.996 21.6459 25.5299 22.0591 25.943C22.4722 26.3562 23.0061 26.6273 23.5834 26.7171C23.6012 26.7195 23.6193 26.7163 23.6352 26.7079C23.651 26.6995 23.6639 26.6864 23.6719 26.6703C23.6799 26.6542 23.6827 26.636 23.6798 26.6183C23.677 26.6006 23.6687 26.5842 23.656 26.5714ZM24.3435 21.4281L26.5723 23.656C26.585 23.6688 26.6015 23.6773 26.6193 23.6803C26.6371 23.6832 26.6554 23.6805 26.6716 23.6724C26.6877 23.6644 26.701 23.6515 26.7094 23.6355C26.7178 23.6195 26.7209 23.6013 26.7184 23.5834C26.6288 23.0053 26.3575 22.4707 25.9438 22.057C25.5301 21.6433 24.9955 21.372 24.4174 21.2824C24.3995 21.2797 24.3812 21.2826 24.3651 21.2909C24.349 21.2992 24.3359 21.3123 24.3277 21.3285C24.3195 21.3446 24.3166 21.363 24.3194 21.3808C24.3223 21.3987 24.3307 21.4153 24.3435 21.4281Z" fill="#F5F5F5"/>
<path d="M34.0977 24.7459C34.2399 24.5227 34.3151 24.2633 34.3144 23.9985C34.3136 23.7338 34.2369 23.4748 34.0934 23.2523C32.9564 21.4941 31.4813 20.0005 29.8279 18.9327C27.9961 17.7502 25.9766 17.125 23.9862 17.125C22.937 17.1264 21.8949 17.2975 20.9002 17.6316C20.8724 17.6409 20.8474 17.6571 20.8276 17.6787C20.8078 17.7004 20.7939 17.7268 20.7872 17.7553C20.7805 17.7839 20.7812 17.8137 20.7892 17.8419C20.7973 17.8701 20.8124 17.8958 20.8332 17.9165L22.863 19.9463C22.8841 19.9675 22.9104 19.9827 22.9391 19.9906C22.9679 19.9985 22.9983 19.9988 23.0272 19.9914C23.7152 19.8238 24.4348 19.8361 25.1168 20.0271C25.7987 20.2182 26.4199 20.5816 26.9207 21.0823C27.4214 21.5831 27.7848 22.2043 27.9759 22.8863C28.1669 23.5682 28.1792 24.2878 28.0116 24.9758C28.0043 25.0047 28.0046 25.0349 28.0125 25.0636C28.0204 25.0923 28.0356 25.1185 28.0567 25.1395L30.9764 28.0614C31.0068 28.0918 31.0475 28.1098 31.0904 28.1117C31.1334 28.1136 31.1755 28.0993 31.2084 28.0717C32.3323 27.1138 33.3062 25.9927 34.0977 24.7459ZM24 28.125C23.3756 28.125 22.7593 27.9833 22.1976 27.7105C21.6359 27.4377 21.1434 27.0409 20.7574 26.55C20.3714 26.0592 20.1018 25.4871 19.9691 24.877C19.8363 24.2668 19.8438 23.6345 19.991 23.0276C19.9983 22.9988 19.998 22.9685 19.9901 22.9398C19.9822 22.9111 19.9669 22.885 19.9459 22.8639L17.0739 19.9906C17.0434 19.9601 17.0026 19.9422 16.9596 19.9403C16.9165 19.9385 16.8743 19.9529 16.8414 19.9807C15.7934 20.8749 14.8219 21.9629 13.9337 23.2343C13.7782 23.4574 13.6926 23.7218 13.6877 23.9937C13.6828 24.2656 13.7589 24.5328 13.9062 24.7614C15.041 26.5373 16.5011 28.033 18.1292 29.0862C19.9635 30.2734 21.9341 30.875 23.9862 30.875C25.0461 30.8722 26.0991 30.7047 27.1075 30.3787C27.1356 30.3697 27.1609 30.3537 27.181 30.3321C27.2011 30.3105 27.2153 30.2841 27.2222 30.2555C27.2292 30.2268 27.2286 30.1969 27.2207 30.1685C27.2127 30.1401 27.1975 30.1142 27.1767 30.0934L25.137 28.0541C25.1159 28.033 25.0898 28.0178 25.0611 28.0099C25.0324 28.002 25.0021 28.0017 24.9732 28.009C24.6546 28.0862 24.3279 28.1251 24 28.125Z" fill="#F5F5F5"/>
</svg>
